# xmcd
#
# Track frame offsets: 
#        150
#        16563
#        31777
#        46217
#        66959
#        81373
#        96027
#        109153
#        129109
#        148362
#
# Disc length: 2228 seconds
#
# Revision: 0
# Processed by: cddbd v1.5.2PL0 Copyright (c) Steve Scherf et al.
# Submitted via: ExactAudioCopy v0.99pb5
#
DISCID=7a08b20a
DTITLE=Philip Selway - Weatherhouse
DYEAR=2014
DGENRE=Blues
TTITLE0=Coming Up For Air
TTITLE1=Around Again
TTITLE2=Let It Go
TTITLE3=Miles Away
TTITLE4=Ghosts
TTITLE5=It Will End In Tears
TTITLE6=Don't Go Now
TTITLE7=Drawn To The Light
TTITLE8=Waiting For A Sign
TTITLE9=Turning It Inside Out
EXTD=
EXTT0=
EXTT1=
EXTT2=
EXTT3=
EXTT4=
EXTT5=
EXTT6=
EXTT7=
EXTT8=
EXTT9=
PLAYORDER=
